<svg xmlns="http://www.w3.org/2000/svg" version="1.1" xmlns:xlink="http://www.w3.org/1999/xlink" viewBox="0 0 200 200"><rect width="200" height="200" fill="url('#gradient')"></rect><defs><linearGradient id="gradient" gradientTransform="rotate(25 0.5 0.5)"><stop offset="0%" stop-color="#b0bea6"></stop><stop offset="100%" stop-color="#cdb891"></stop></linearGradient></defs><g><g fill="#2c3448" transform="matrix(1.8076968341767683,0,0,1.8076968341767683,23.905274698295713,113.38822178904051)" stroke="#27354b" stroke-width="0.15"><path d="M11.65-12.46L4.92-2.64L11.72-2.64L11.72 0L0.64 0L0.64-1.81L7.42-11.57L0.61-11.57L0.61-14.22L11.65-14.22L11.65-12.46ZM22.36 0L19.07 0Q18.90-0.32 18.76-0.95L18.76-0.95Q17.85 0.20 16.22 0.20L16.22 0.20Q14.73 0.20 13.68-0.71Q12.64-1.61 12.64-2.98L12.64-2.98Q12.64-4.70 13.91-5.58Q15.18-6.46 17.60-6.46L17.60-6.46L18.61-6.46L18.61-7.01Q18.61-8.47 17.35-8.47L17.35-8.47Q16.18-8.47 16.18-7.31L16.18-7.31L12.89-7.31Q12.89-8.85 14.19-9.80Q15.50-10.76 17.52-10.76Q19.54-10.76 20.71-9.78Q21.88-8.79 21.91-7.07L21.91-7.07L21.91-2.39Q21.93-0.94 22.36-0.17L22.36-0.17L22.36 0ZM17.01-2.15L17.01-2.15Q17.63-2.15 18.03-2.41Q18.44-2.68 18.61-3.01L18.61-3.01L18.61-4.70L17.66-4.70Q15.94-4.70 15.94-3.15L15.94-3.15Q15.94-2.71 16.24-2.43Q16.54-2.15 17.01-2.15ZM29.27-2.97L29.27-2.97Q29.27-3.39 28.83-3.64Q28.39-3.90 27.16-4.17Q25.93-4.44 25.13-4.89Q24.33-5.33 23.91-5.97Q23.49-6.60 23.49-7.42L23.49-7.42Q23.49-8.88 24.69-9.82Q25.89-10.76 27.83-10.76L27.83-10.76Q29.92-10.76 31.19-9.81Q32.46-8.87 32.46-7.32L32.46-7.32L29.16-7.32Q29.16-8.59 27.82-8.59L27.82-8.59Q27.30-8.59 26.95-8.31Q26.60-8.02 26.60-7.59L26.60-7.59Q26.60-7.15 27.03-6.88Q27.46-6.60 28.40-6.43Q29.35-6.25 30.06-6.01L30.06-6.01Q32.44-5.19 32.44-3.07L32.44-3.07Q32.44-1.62 31.16-0.71Q29.87 0.20 27.83 0.20L27.83 0.20Q26.47 0.20 25.41-0.29Q24.35-0.78 23.75-1.62Q23.15-2.46 23.15-3.39L23.15-3.39L26.23-3.39Q26.25-2.66 26.72-2.32Q27.19-1.98 27.92-1.98L27.92-1.98Q28.59-1.98 28.93-2.26Q29.27-2.53 29.27-2.97ZM33.57-4.82L33.56-5.38Q33.56-6.96 34.18-8.20Q34.79-9.43 35.95-10.10Q37.10-10.76 38.65-10.76L38.65-10.76Q41.03-10.76 42.39-9.29Q43.76-7.82 43.76-5.29L43.76-5.29L43.76-5.18Q43.76-2.71 42.39-1.25Q41.02 0.20 38.67 0.20L38.67 0.20Q36.42 0.20 35.05-1.16Q33.68-2.51 33.57-4.82L33.57-4.82ZM36.87-5.77L36.86-5.18Q36.86-3.71 37.31-3.03Q37.77-2.34 38.67-2.34L38.67-2.34Q40.43-2.34 40.47-5.05L40.47-5.05L40.47-5.38Q40.47-8.22 38.65-8.22L38.65-8.22Q37.00-8.22 36.87-5.77L36.87-5.77ZM45.15-10.57L48.23-10.57L48.34-9.33Q49.43-10.76 51.36-10.76L51.36-10.76Q53.01-10.76 53.82-9.78Q54.64-8.79 54.67-6.81L54.67-6.81L54.67 0L51.37 0L51.37-6.67Q51.37-7.47 51.04-7.85Q50.72-8.22 49.87-8.22L49.87-8.22Q48.91-8.22 48.44-7.46L48.44-7.46L48.44 0L45.15 0L45.15-10.57ZM56.43-10.57L59.51-10.57L59.62-9.33Q60.71-10.76 62.64-10.76L62.64-10.76Q64.29-10.76 65.10-9.78Q65.92-8.79 65.95-6.81L65.95-6.81L65.95 0L62.65 0L62.65-6.67Q62.65-7.47 62.32-7.85Q62.00-8.22 61.15-8.22L61.15-8.22Q60.19-8.22 59.72-7.46L59.72-7.46L59.72 0L56.43 0L56.43-10.57ZM71.24-10.57L71.24 0L67.94 0L67.94-10.57L71.24-10.57ZM67.74-13.29L67.74-13.29Q67.74-13.99 68.25-14.44Q68.76-14.89 69.57-14.89Q70.38-14.89 70.89-14.44Q71.40-13.99 71.40-13.29Q71.40-12.59 70.89-12.14Q70.38-11.69 69.57-11.69Q68.76-11.69 68.25-12.14Q67.74-12.59 67.74-13.29ZM79.81 0L77.51-3.94L76.58-3.01L76.58 0L73.29 0L73.29-15.01L76.58-15.01L76.58-7.04L76.91-7.48L79.39-10.57L83.34-10.57L79.64-6.22L83.58 0L79.81 0Z"></path></g></g></svg>